<mxfile host="Electron" agent="Mozilla/5.0 (Windows NT 10.0; Win64; x64) AppleWebKit/537.36 (KHTML, like Gecko) draw.io/26.2.15 Chrome/134.0.6998.205 Electron/35.2.1 Safari/537.36" version="26.2.15">
  <diagram name="Page-1" id="_rah5vyDKr0SqzCxXsOO">
    <mxGraphModel dx="1843" dy="1344" grid="1" gridSize="10" guides="1" tooltips="1" connect="1" arrows="1" fold="1" page="0" pageScale="1" pageWidth="850" pageHeight="1100" math="0" shadow="0">
      <root>
        <mxCell id="0" />
        <mxCell id="1" parent="0" />
        <mxCell id="DZjRR032bUh0mo5jqptf-52" style="edgeStyle=orthogonalEdgeStyle;rounded=0;orthogonalLoop=1;jettySize=auto;html=1;exitX=0.5;exitY=1;exitDx=0;exitDy=0;entryX=0.5;entryY=0;entryDx=0;entryDy=0;" edge="1" parent="1" source="DZjRR032bUh0mo5jqptf-1" target="DZjRR032bUh0mo5jqptf-2">
          <mxGeometry relative="1" as="geometry" />
        </mxCell>
        <mxCell id="DZjRR032bUh0mo5jqptf-1" value="&lt;p style=&quot;white-space-collapse: preserve;&quot; dir=&quot;auto&quot;&gt;Start TaskMQTT&lt;/p&gt;" style="ellipse;whiteSpace=wrap;html=1;" vertex="1" parent="1">
          <mxGeometry x="200" y="-40" width="120" height="80" as="geometry" />
        </mxCell>
        <mxCell id="DZjRR032bUh0mo5jqptf-8" style="edgeStyle=orthogonalEdgeStyle;rounded=0;orthogonalLoop=1;jettySize=auto;html=1;exitX=1;exitY=0.5;exitDx=0;exitDy=0;entryX=0;entryY=0.5;entryDx=0;entryDy=0;" edge="1" parent="1" source="DZjRR032bUh0mo5jqptf-2" target="DZjRR032bUh0mo5jqptf-3">
          <mxGeometry relative="1" as="geometry" />
        </mxCell>
        <mxCell id="DZjRR032bUh0mo5jqptf-10" style="edgeStyle=orthogonalEdgeStyle;rounded=0;orthogonalLoop=1;jettySize=auto;html=1;exitX=0.5;exitY=1;exitDx=0;exitDy=0;entryX=0.5;entryY=0;entryDx=0;entryDy=0;" edge="1" parent="1" source="DZjRR032bUh0mo5jqptf-2" target="DZjRR032bUh0mo5jqptf-4">
          <mxGeometry relative="1" as="geometry" />
        </mxCell>
        <mxCell id="DZjRR032bUh0mo5jqptf-2" value="&lt;p style=&quot;white-space-collapse: preserve;&quot; dir=&quot;auto&quot;&gt;isAPMode == true&lt;/p&gt;" style="rhombus;whiteSpace=wrap;html=1;" vertex="1" parent="1">
          <mxGeometry x="200" y="80" width="120" height="80" as="geometry" />
        </mxCell>
        <mxCell id="DZjRR032bUh0mo5jqptf-3" value="&lt;p style=&quot;white-space-collapse: preserve;&quot; dir=&quot;auto&quot;&gt;Delay 500ms&lt;/p&gt;" style="rounded=0;whiteSpace=wrap;html=1;" vertex="1" parent="1">
          <mxGeometry x="400" y="100" width="120" height="40" as="geometry" />
        </mxCell>
        <mxCell id="DZjRR032bUh0mo5jqptf-12" style="edgeStyle=orthogonalEdgeStyle;rounded=0;orthogonalLoop=1;jettySize=auto;html=1;exitX=0.5;exitY=1;exitDx=0;exitDy=0;entryX=0.5;entryY=0;entryDx=0;entryDy=0;" edge="1" parent="1" source="DZjRR032bUh0mo5jqptf-4" target="DZjRR032bUh0mo5jqptf-5">
          <mxGeometry relative="1" as="geometry" />
        </mxCell>
        <mxCell id="DZjRR032bUh0mo5jqptf-14" style="edgeStyle=orthogonalEdgeStyle;rounded=0;orthogonalLoop=1;jettySize=auto;html=1;exitX=1;exitY=0.5;exitDx=0;exitDy=0;entryX=0;entryY=0.5;entryDx=0;entryDy=0;" edge="1" parent="1" source="DZjRR032bUh0mo5jqptf-4" target="DZjRR032bUh0mo5jqptf-13">
          <mxGeometry relative="1" as="geometry" />
        </mxCell>
        <mxCell id="DZjRR032bUh0mo5jqptf-4" value="&lt;p style=&quot;white-space-collapse: preserve;&quot; dir=&quot;auto&quot;&gt;WiFi.status() != WL_CONNECTED || !client.connected()&lt;/p&gt;" style="rhombus;whiteSpace=wrap;html=1;" vertex="1" parent="1">
          <mxGeometry x="180" y="190" width="160" height="110" as="geometry" />
        </mxCell>
        <mxCell id="DZjRR032bUh0mo5jqptf-17" style="edgeStyle=orthogonalEdgeStyle;rounded=0;orthogonalLoop=1;jettySize=auto;html=1;exitX=0.5;exitY=1;exitDx=0;exitDy=0;entryX=0.5;entryY=0;entryDx=0;entryDy=0;" edge="1" parent="1" source="DZjRR032bUh0mo5jqptf-5" target="DZjRR032bUh0mo5jqptf-6">
          <mxGeometry relative="1" as="geometry" />
        </mxCell>
        <mxCell id="DZjRR032bUh0mo5jqptf-22" style="edgeStyle=orthogonalEdgeStyle;rounded=0;orthogonalLoop=1;jettySize=auto;html=1;exitX=1;exitY=0.5;exitDx=0;exitDy=0;entryX=0.5;entryY=0;entryDx=0;entryDy=0;" edge="1" parent="1" source="DZjRR032bUh0mo5jqptf-5" target="DZjRR032bUh0mo5jqptf-35">
          <mxGeometry relative="1" as="geometry">
            <mxPoint x="395" y="415" as="targetPoint" />
          </mxGeometry>
        </mxCell>
        <mxCell id="DZjRR032bUh0mo5jqptf-5" value="currentMillis - lastReconnectAttempt &amp;gt;= reconnectInterval" style="rhombus;whiteSpace=wrap;html=1;" vertex="1" parent="1">
          <mxGeometry x="185" y="330" width="150" height="110" as="geometry" />
        </mxCell>
        <mxCell id="DZjRR032bUh0mo5jqptf-19" style="edgeStyle=orthogonalEdgeStyle;rounded=0;orthogonalLoop=1;jettySize=auto;html=1;exitX=0.5;exitY=1;exitDx=0;exitDy=0;entryX=0.5;entryY=0;entryDx=0;entryDy=0;" edge="1" parent="1" source="DZjRR032bUh0mo5jqptf-6" target="DZjRR032bUh0mo5jqptf-7">
          <mxGeometry relative="1" as="geometry" />
        </mxCell>
        <mxCell id="DZjRR032bUh0mo5jqptf-27" style="edgeStyle=orthogonalEdgeStyle;rounded=0;orthogonalLoop=1;jettySize=auto;html=1;exitX=1;exitY=0.5;exitDx=0;exitDy=0;entryX=0;entryY=0.5;entryDx=0;entryDy=0;" edge="1" parent="1" source="DZjRR032bUh0mo5jqptf-6" target="DZjRR032bUh0mo5jqptf-26">
          <mxGeometry relative="1" as="geometry" />
        </mxCell>
        <mxCell id="DZjRR032bUh0mo5jqptf-6" value="&lt;p style=&quot;white-space-collapse: preserve;&quot; dir=&quot;auto&quot;&gt;reconnect() not successful&lt;/p&gt;" style="rhombus;whiteSpace=wrap;html=1;" vertex="1" parent="1">
          <mxGeometry x="180" y="470" width="160" height="70" as="geometry" />
        </mxCell>
        <mxCell id="DZjRR032bUh0mo5jqptf-30" style="edgeStyle=orthogonalEdgeStyle;rounded=0;orthogonalLoop=1;jettySize=auto;html=1;exitX=0.5;exitY=1;exitDx=0;exitDy=0;entryX=0.5;entryY=0;entryDx=0;entryDy=0;" edge="1" parent="1" source="DZjRR032bUh0mo5jqptf-7" target="DZjRR032bUh0mo5jqptf-29">
          <mxGeometry relative="1" as="geometry" />
        </mxCell>
        <mxCell id="DZjRR032bUh0mo5jqptf-33" style="edgeStyle=orthogonalEdgeStyle;rounded=0;orthogonalLoop=1;jettySize=auto;html=1;exitX=1;exitY=0.5;exitDx=0;exitDy=0;entryX=0;entryY=0.5;entryDx=0;entryDy=0;" edge="1" parent="1" source="DZjRR032bUh0mo5jqptf-7" target="DZjRR032bUh0mo5jqptf-32">
          <mxGeometry relative="1" as="geometry" />
        </mxCell>
        <mxCell id="DZjRR032bUh0mo5jqptf-7" value="&lt;p style=&quot;white-space-collapse: preserve;&quot; dir=&quot;auto&quot;&gt;failedReconnectAttempts &amp;gt;= MAX_RECONNECT_ATTEMPTS&lt;/p&gt;" style="rhombus;whiteSpace=wrap;html=1;" vertex="1" parent="1">
          <mxGeometry x="155" y="570" width="210" height="100" as="geometry" />
        </mxCell>
        <mxCell id="DZjRR032bUh0mo5jqptf-9" value="True" style="text;html=1;align=center;verticalAlign=middle;resizable=0;points=[];autosize=1;strokeColor=none;fillColor=none;" vertex="1" parent="1">
          <mxGeometry x="325" y="88" width="50" height="30" as="geometry" />
        </mxCell>
        <mxCell id="DZjRR032bUh0mo5jqptf-11" value="False" style="text;html=1;align=center;verticalAlign=middle;resizable=0;points=[];autosize=1;strokeColor=none;fillColor=none;" vertex="1" parent="1">
          <mxGeometry x="255" y="160" width="50" height="30" as="geometry" />
        </mxCell>
        <mxCell id="DZjRR032bUh0mo5jqptf-24" style="edgeStyle=orthogonalEdgeStyle;rounded=0;orthogonalLoop=1;jettySize=auto;html=1;exitX=1;exitY=0.5;exitDx=0;exitDy=0;entryX=0.5;entryY=0;entryDx=0;entryDy=0;" edge="1" parent="1" source="DZjRR032bUh0mo5jqptf-13" target="DZjRR032bUh0mo5jqptf-35">
          <mxGeometry relative="1" as="geometry">
            <mxPoint x="555" y="245" as="targetPoint" />
          </mxGeometry>
        </mxCell>
        <mxCell id="DZjRR032bUh0mo5jqptf-13" value="&lt;p style=&quot;white-space-collapse: preserve;&quot; dir=&quot;auto&quot;&gt;lastReconnectAttempt = currentMillis&lt;/p&gt;" style="rounded=0;whiteSpace=wrap;html=1;" vertex="1" parent="1">
          <mxGeometry x="395" y="225" width="120" height="40" as="geometry" />
        </mxCell>
        <mxCell id="DZjRR032bUh0mo5jqptf-15" value="True" style="text;html=1;align=center;verticalAlign=middle;resizable=0;points=[];autosize=1;strokeColor=none;fillColor=none;" vertex="1" parent="1">
          <mxGeometry x="260" y="300" width="50" height="30" as="geometry" />
        </mxCell>
        <mxCell id="DZjRR032bUh0mo5jqptf-16" value="False" style="text;html=1;align=center;verticalAlign=middle;resizable=0;points=[];autosize=1;strokeColor=none;fillColor=none;" vertex="1" parent="1">
          <mxGeometry x="330" y="208" width="50" height="30" as="geometry" />
        </mxCell>
        <mxCell id="DZjRR032bUh0mo5jqptf-18" value="True" style="text;html=1;align=center;verticalAlign=middle;resizable=0;points=[];autosize=1;strokeColor=none;fillColor=none;" vertex="1" parent="1">
          <mxGeometry x="260" y="440" width="50" height="30" as="geometry" />
        </mxCell>
        <mxCell id="DZjRR032bUh0mo5jqptf-20" value="True" style="text;html=1;align=center;verticalAlign=middle;resizable=0;points=[];autosize=1;strokeColor=none;fillColor=none;" vertex="1" parent="1">
          <mxGeometry x="260" y="540" width="50" height="30" as="geometry" />
        </mxCell>
        <mxCell id="DZjRR032bUh0mo5jqptf-25" value="False" style="text;html=1;align=center;verticalAlign=middle;resizable=0;points=[];autosize=1;strokeColor=none;fillColor=none;" vertex="1" parent="1">
          <mxGeometry x="345" y="380" width="50" height="30" as="geometry" />
        </mxCell>
        <mxCell id="DZjRR032bUh0mo5jqptf-26" value="&lt;p style=&quot;white-space-collapse: preserve;&quot; dir=&quot;auto&quot;&gt;lastReconnectAttempt = currentMillis&lt;/p&gt;" style="rounded=0;whiteSpace=wrap;html=1;" vertex="1" parent="1">
          <mxGeometry x="400" y="483" width="120" height="45" as="geometry" />
        </mxCell>
        <mxCell id="DZjRR032bUh0mo5jqptf-28" value="False" style="text;html=1;align=center;verticalAlign=middle;resizable=0;points=[];autosize=1;strokeColor=none;fillColor=none;" vertex="1" parent="1">
          <mxGeometry x="340" y="480" width="50" height="30" as="geometry" />
        </mxCell>
        <mxCell id="DZjRR032bUh0mo5jqptf-29" value="&lt;p style=&quot;white-space-collapse: preserve;&quot; dir=&quot;auto&quot;&gt;Call startAPMode()&lt;/p&gt;" style="rounded=0;whiteSpace=wrap;html=1;" vertex="1" parent="1">
          <mxGeometry x="200" y="700" width="120" height="40" as="geometry" />
        </mxCell>
        <mxCell id="DZjRR032bUh0mo5jqptf-31" value="True" style="text;html=1;align=center;verticalAlign=middle;resizable=0;points=[];autosize=1;strokeColor=none;fillColor=none;" vertex="1" parent="1">
          <mxGeometry x="260" y="670" width="50" height="30" as="geometry" />
        </mxCell>
        <mxCell id="DZjRR032bUh0mo5jqptf-32" value="&lt;p style=&quot;white-space-collapse: preserve;&quot; dir=&quot;auto&quot;&gt;lastReconnectAttempt = currentMillis&lt;/p&gt;" style="rounded=0;whiteSpace=wrap;html=1;" vertex="1" parent="1">
          <mxGeometry x="435" y="600" width="120" height="40" as="geometry" />
        </mxCell>
        <mxCell id="DZjRR032bUh0mo5jqptf-34" value="False" style="text;html=1;align=center;verticalAlign=middle;resizable=0;points=[];autosize=1;strokeColor=none;fillColor=none;" vertex="1" parent="1">
          <mxGeometry x="365" y="590" width="50" height="30" as="geometry" />
        </mxCell>
        <mxCell id="DZjRR032bUh0mo5jqptf-38" style="edgeStyle=orthogonalEdgeStyle;rounded=0;orthogonalLoop=1;jettySize=auto;html=1;exitX=1;exitY=0.5;exitDx=0;exitDy=0;entryX=0;entryY=0.5;entryDx=0;entryDy=0;" edge="1" parent="1" source="DZjRR032bUh0mo5jqptf-35" target="DZjRR032bUh0mo5jqptf-36">
          <mxGeometry relative="1" as="geometry" />
        </mxCell>
        <mxCell id="DZjRR032bUh0mo5jqptf-42" style="edgeStyle=orthogonalEdgeStyle;rounded=0;orthogonalLoop=1;jettySize=auto;html=1;exitX=0.5;exitY=1;exitDx=0;exitDy=0;entryX=0.5;entryY=0;entryDx=0;entryDy=0;" edge="1" parent="1" source="DZjRR032bUh0mo5jqptf-35" target="DZjRR032bUh0mo5jqptf-41">
          <mxGeometry relative="1" as="geometry" />
        </mxCell>
        <mxCell id="DZjRR032bUh0mo5jqptf-35" value="&lt;p style=&quot;white-space-collapse: preserve;&quot; dir=&quot;auto&quot;&gt;publishSensorFlag == true&lt;/p&gt;" style="rhombus;whiteSpace=wrap;html=1;" vertex="1" parent="1">
          <mxGeometry x="570" y="640" width="160" height="80" as="geometry" />
        </mxCell>
        <mxCell id="DZjRR032bUh0mo5jqptf-40" style="edgeStyle=orthogonalEdgeStyle;rounded=0;orthogonalLoop=1;jettySize=auto;html=1;exitX=0.5;exitY=1;exitDx=0;exitDy=0;entryX=0.5;entryY=0;entryDx=0;entryDy=0;" edge="1" parent="1" source="DZjRR032bUh0mo5jqptf-36" target="DZjRR032bUh0mo5jqptf-37">
          <mxGeometry relative="1" as="geometry" />
        </mxCell>
        <mxCell id="DZjRR032bUh0mo5jqptf-36" value="&lt;p style=&quot;white-space-collapse: preserve;&quot; dir=&quot;auto&quot;&gt;Call publishMQTTSensor()&lt;/p&gt;" style="rounded=0;whiteSpace=wrap;html=1;" vertex="1" parent="1">
          <mxGeometry x="800" y="660" width="120" height="40" as="geometry" />
        </mxCell>
        <mxCell id="DZjRR032bUh0mo5jqptf-37" value="&lt;p style=&quot;white-space-collapse: preserve;&quot; dir=&quot;auto&quot;&gt;publishSensorFlag = false&lt;/p&gt;" style="rounded=0;whiteSpace=wrap;html=1;" vertex="1" parent="1">
          <mxGeometry x="800" y="730" width="120" height="40" as="geometry" />
        </mxCell>
        <mxCell id="DZjRR032bUh0mo5jqptf-39" value="True" style="text;html=1;align=center;verticalAlign=middle;resizable=0;points=[];autosize=1;strokeColor=none;fillColor=none;" vertex="1" parent="1">
          <mxGeometry x="730" y="650" width="50" height="30" as="geometry" />
        </mxCell>
        <mxCell id="DZjRR032bUh0mo5jqptf-47" style="edgeStyle=orthogonalEdgeStyle;rounded=0;orthogonalLoop=1;jettySize=auto;html=1;exitX=0;exitY=0.5;exitDx=0;exitDy=0;entryX=1;entryY=0.5;entryDx=0;entryDy=0;" edge="1" parent="1" source="DZjRR032bUh0mo5jqptf-41" target="DZjRR032bUh0mo5jqptf-44">
          <mxGeometry relative="1" as="geometry" />
        </mxCell>
        <mxCell id="DZjRR032bUh0mo5jqptf-50" style="edgeStyle=orthogonalEdgeStyle;rounded=0;orthogonalLoop=1;jettySize=auto;html=1;exitX=0.5;exitY=1;exitDx=0;exitDy=0;" edge="1" parent="1" source="DZjRR032bUh0mo5jqptf-41" target="DZjRR032bUh0mo5jqptf-49">
          <mxGeometry relative="1" as="geometry" />
        </mxCell>
        <mxCell id="DZjRR032bUh0mo5jqptf-41" value="&lt;p style=&quot;white-space-collapse: preserve;&quot; dir=&quot;auto&quot;&gt;publishDeviceFlag == true&lt;/p&gt;" style="rhombus;whiteSpace=wrap;html=1;" vertex="1" parent="1">
          <mxGeometry x="570" y="750" width="160" height="80" as="geometry" />
        </mxCell>
        <mxCell id="DZjRR032bUh0mo5jqptf-43" value="False" style="text;html=1;align=center;verticalAlign=middle;resizable=0;points=[];autosize=1;strokeColor=none;fillColor=none;" vertex="1" parent="1">
          <mxGeometry x="650" y="720" width="50" height="30" as="geometry" />
        </mxCell>
        <mxCell id="DZjRR032bUh0mo5jqptf-46" style="edgeStyle=orthogonalEdgeStyle;rounded=0;orthogonalLoop=1;jettySize=auto;html=1;exitX=0.5;exitY=1;exitDx=0;exitDy=0;entryX=0.5;entryY=0;entryDx=0;entryDy=0;" edge="1" parent="1" source="DZjRR032bUh0mo5jqptf-44" target="DZjRR032bUh0mo5jqptf-45">
          <mxGeometry relative="1" as="geometry" />
        </mxCell>
        <mxCell id="DZjRR032bUh0mo5jqptf-44" value="&lt;p style=&quot;white-space-collapse: preserve;&quot; dir=&quot;auto&quot;&gt;Call publishMQTTDevice()&lt;/p&gt;" style="rounded=0;whiteSpace=wrap;html=1;" vertex="1" parent="1">
          <mxGeometry x="400" y="770" width="120" height="40" as="geometry" />
        </mxCell>
        <mxCell id="DZjRR032bUh0mo5jqptf-45" value="&lt;p style=&quot;white-space-collapse: preserve;&quot; dir=&quot;auto&quot;&gt;publishDeviceFlag = false&lt;/p&gt;" style="rounded=0;whiteSpace=wrap;html=1;" vertex="1" parent="1">
          <mxGeometry x="400" y="840" width="120" height="40" as="geometry" />
        </mxCell>
        <mxCell id="DZjRR032bUh0mo5jqptf-48" value="True" style="text;html=1;align=center;verticalAlign=middle;resizable=0;points=[];autosize=1;strokeColor=none;fillColor=none;" vertex="1" parent="1">
          <mxGeometry x="520" y="760" width="50" height="30" as="geometry" />
        </mxCell>
        <mxCell id="DZjRR032bUh0mo5jqptf-49" value="&lt;p style=&quot;white-space-collapse: preserve;&quot; dir=&quot;auto&quot;&gt;Delay 500ms&lt;/p&gt;" style="rounded=0;whiteSpace=wrap;html=1;" vertex="1" parent="1">
          <mxGeometry x="590" y="860" width="120" height="40" as="geometry" />
        </mxCell>
        <mxCell id="DZjRR032bUh0mo5jqptf-51" value="False" style="text;html=1;align=center;verticalAlign=middle;resizable=0;points=[];autosize=1;strokeColor=none;fillColor=none;" vertex="1" parent="1">
          <mxGeometry x="660" y="830" width="50" height="30" as="geometry" />
        </mxCell>
      </root>
    </mxGraphModel>
  </diagram>
</mxfile>
